<svg xmlns="http://www.w3.org/2000/svg" viewBox="136.401 40.5 1108.135 856.676">
  <defs>
    <style>
      .cls-1 {
        fill: #40be1b;
      }

      .cls-2, .cls-3, .cls-4 {
        fill: #ff4e00;
        font-family: HelveticaNeue-Bold, Helvetica Neue;
        font-weight: 700;
      }

      .cls-2 {
        font-size: 250px;
      }

      .cls-3 {
        font-size: 260px;
      }

      .cls-4 {
        font-size: 350px;
      }
    </style>
  </defs>
  <g id="Groupe_1" data-name="Groupe 1" transform="translate(-301 -71)">
    <path id="Exclusion_1" data-name="Exclusion 1" class="cls-1" d="M503.167,594.064h-.081c-59.078,0-122.288-1.668-187.876-4.954-52.47-2.629-106.569-6.293-160.795-10.892-48.25-4.092-87.664-8.181-112.231-10.891C15.685,564.4.15,562.4,0,562.377V68.666l.025-.008C1.549,68.2,15.593,64,39.267,57.937c22.929-5.873,59.8-14.736,105.246-23.6,51.077-9.967,102.349-17.909,152.392-23.6,29.712-3.382,59.316-6,87.991-7.779C416.436.993,447.63,0,477.611,0c29.645,0,58.838.97,86.77,2.884,29.906,2.049,59.162,5.235,86.956,9.469a870.8,870.8,0,0,1,85.355,17.279c14.128,3.633,28.1,7.654,41.518,11.951C792,46,805.611,50.831,818.658,55.946c13.392,5.251,26.565,10.945,39.153,16.927,12.909,6.133,25.571,12.743,37.635,19.644,12.357,7.07,24.434,14.645,35.894,22.515,11.731,8.057,23.147,16.649,33.929,25.539,11.029,9.093,21.708,18.754,31.741,28.716,10.254,10.182,20.122,20.963,29.329,32.046,9.4,11.319,18.385,23.272,26.694,35.529,8.481,12.51,16.5,25.687,23.835,39.165,4.709,8.653,8.944,17.255,12.585,25.568,3.594,8.2,6.711,16.354,9.263,24.224a208.8,208.8,0,0,1,6.063,22.912,170.164,170.164,0,0,1,2.982,21.635,144.426,144.426,0,0,1,.023,20.391,129.465,129.465,0,0,1-2.815,19.18,123.911,123.911,0,0,1-5.532,18,127.065,127.065,0,0,1-8.128,16.859,141.92,141.92,0,0,1-15.133,21.305,174.5,174.5,0,0,1-19.469,19.307,225.731,225.731,0,0,1-23.494,17.394,297.9,297.9,0,0,1-27.208,15.568c-9.495,4.814-19.793,9.466-30.61,13.827-10.556,4.256-21.9,8.352-33.7,12.173a740.912,740.912,0,0,1-75.43,19.727C771.507,583.982,649.343,594.064,503.167,594.064Zm-3.751-444.307c-40.824,0-84.1,1.873-128.613,5.566-35.617,2.955-72.105,7.075-108.451,12.246-32.343,4.6-58.58,9.2-74.894,12.246-17.566,3.281-27.842,5.545-27.941,5.567V441.52c.405.038,44.682,4.187,109.89,8.218,38.589,2.386,77.089,4.287,114.431,5.651,46.673,1.7,91.658,2.569,133.7,2.57h.057c110.718,0,201.905-5.912,271.029-17.573,20.046-3.382,38.469-7.3,54.759-11.642a324.564,324.564,0,0,0,45.378-15.384,187.573,187.573,0,0,0,18.518-9.227,125.7,125.7,0,0,0,15.389-10.32,84.5,84.5,0,0,0,12-11.467,60.558,60.558,0,0,0,8.349-12.665,50.693,50.693,0,0,0,4.783-16.4,57.2,57.2,0,0,0-.983-18.2A85.151,85.151,0,0,0,939.653,315a143.979,143.979,0,0,0-13.769-22.042,246.435,246.435,0,0,0-16.961-20.316,262.107,262.107,0,0,0-19-18.431c-6.554-5.75-13.576-11.343-20.872-16.624-7.139-5.167-14.739-10.179-22.589-14.9a382.842,382.842,0,0,0-49.692-24.93,498.6,498.6,0,0,0-54.65-18.974c-18.321-5.237-37.948-9.83-58.334-13.653-19.262-3.612-39.7-6.628-60.745-8.966-19.781-2.2-40.6-3.851-61.882-4.914C541.288,150.261,520.513,149.758,499.416,149.757Z" transform="translate(437.401 374.112)"/>
    <path id="Exclusion_2" data-name="Exclusion 2" class="cls-1" d="M9.871,300.33h-.01c-6.3,0-9.828-.06-9.861-.061V210.413c.063,0,1.73.024,4.564.024,6.113,0,18.71-.107,34.443-.822,19.08-.867,36.978-2.349,53.2-4.4,21.3-2.7,39.41-6.365,53.838-10.9a122.091,122.091,0,0,0,21.5-8.792c6.417-3.488,11.419-7.359,14.868-11.505a25.891,25.891,0,0,0,5.139-9.46,23.907,23.907,0,0,0,.413-10.967,33.274,33.274,0,0,0-3.938-10.555,43.928,43.928,0,0,0-7.322-9.3c-5.59-5.5-13.257-10.591-22.787-15.145-16.05-7.669-37.614-13.962-64.092-18.7-10.4-1.863-21.6-3.489-33.274-4.831-9.341-1.074-19.01-1.97-28.739-2.664C11.315,91.217.112,91.026,0,91.024V0H.024C2.559.052,25.779.594,60.089,3.442c21.021,1.745,41.913,4,62.1,6.7,25.231,3.376,49.42,7.464,71.9,12.15,57.212,11.928,103.805,27.756,138.485,47.044A222.928,222.928,0,0,1,359.757,87,152.4,152.4,0,0,1,381.8,107.427a109.771,109.771,0,0,1,15.82,23.386,92.649,92.649,0,0,1,8.509,26.547,73.832,73.832,0,0,1,.836,16.106,65.307,65.307,0,0,1-2.649,14.851,67.5,67.5,0,0,1-5.862,13.647,79.88,79.88,0,0,1-8.8,12.494,107.259,107.259,0,0,1-15.143,14.4,156.917,156.917,0,0,1-18.955,12.7,228.92,228.92,0,0,1-22.2,11.1c-7.662,3.354-16.028,6.589-24.864,9.614-31.2,10.684-69.8,19.329-114.722,25.7-34.254,4.855-71.845,8.356-111.729,10.405C49.037,300.076,22.657,300.33,9.871,300.33Z" transform="translate(594 112)"/>
    <rect id="Rectangle_1" data-name="Rectangle 1" class="cls-1" width="159" height="823" transform="translate(437.5 111.5)"/>
    <text id="K" class="cls-2" transform="translate(675 775)"><tspan x="0" y="0">K</tspan></text>
    <text id="y" class="cls-3" transform="translate(888 730)"><tspan x="0" y="0">y</tspan></text>
    <text id="c" class="cls-4" transform="translate(1046 775)"><tspan x="0" y="0">c</tspan></text>
  </g>
</svg>
